<svg xmlns="http://www.w3.org/2000/svg" width="20" height="20" viewBox="0 0 128 128">
  <path fill="#2e7d32"
    d="M119.65 102.09H8.35c-2.4 0-4.35-1.95-4.35-4.35V30.28c0-2.41 1.95-4.37 4.37-4.37h111.27c2.41 0 4.37 1.95 4.37 4.37v67.46a4.37 4.37 0 0 1-4.36 4.35" />
  <path fill="#66bb6a"
    d="M119.78 89.91H8.22A4.22 4.22 0 0 1 4 85.69V30.28c0-2.41 1.95-4.37 4.37-4.37h111.27c2.41 0 4.37 1.95 4.37 4.37v55.41a4.236 4.236 0 0 1-4.23 4.22" />
  <path fill="#fff"
    d="M39.68 65.37c0-1.23-.43-2.27-1.29-3.11s-2.32-1.61-4.37-2.29c-2.85-.87-4.93-2-6.23-3.4c-1.31-1.4-1.96-3.18-1.96-5.33q0-3.3 1.92-5.4c1.28-1.41 3.04-2.24 5.27-2.51v-3.47c0-.51.42-.93.93-.93h1.13c.51 0 .93.42.93.93v3.49c2.25.31 4 1.25 5.25 2.83c1.12 1.42 1.74 3.3 1.86 5.65c.02.46-.36.84-.82.84h-2.07c-.44 0-.78-.35-.82-.79q-.165-2.295-1.32-3.72c-.9-1.11-2.11-1.67-3.63-1.67c-1.59 0-2.81.41-3.65 1.24c-.84.82-1.27 1.98-1.27 3.45c0 1.37.45 2.46 1.34 3.27s2.36 1.55 4.4 2.21s3.63 1.39 4.78 2.19c1.14.8 1.99 1.72 2.53 2.78q.81 1.59.81 3.72q0 3.39-2.04 5.46c-1.36 1.38-3.26 2.2-5.71 2.45v2.9c0 .51-.42.93-.93.93H33.6c-.51 0-.93-.42-.93-.93v-2.9c-2.49-.23-4.44-1.11-5.85-2.66c-1.26-1.38-1.96-3.2-2.09-5.45c-.03-.46.36-.84.82-.84h2.09c.42 0 .78.31.81.73q.165 2.265 1.44 3.57c.98 1 2.36 1.51 4.16 1.51c1.75 0 3.13-.42 4.14-1.27c.99-.87 1.49-2.02 1.49-3.48" />
  <path fill="#fff" d="m35.64 74.09l-2.97-.85l.34-29.82v-1.01l2.99.93l-.36 29.88z" />
  <circle cx="84.78" cy="57.91" r="18.5" fill="#2e7d32" opacity="0.5" />
  <path fill="#2e7d32"
    d="M106.45 33.1c.86 5.4 5.14 9.68 10.54 10.54v28.54c-5.4.86-9.68 5.14-10.54 10.54H21.42c-1.1-5.11-5.26-9.05-10.42-9.87V44.31c5.63-.89 10.03-5.49 10.63-11.21zm1.84-2h-88.6c.01.22.02.44.02.67c0 5.91-4.79 10.7-10.7 10.7V74.7c5.68 0 10.33 4.43 10.68 10.03h88.61c0-5.91 4.79-10.7 10.7-10.7V41.8c-5.92 0-10.71-4.79-10.71-10.7" />
  <path fill="#ffecb3" d="M53 25.91h22.01v76.18H53z" />
  <path fill="#ffc06c" d="M53 89.91h22.01v12.18H53z" />
</svg>