<svg xmlns="http://www.w3.org/2000/svg" width="16" height="16" viewBox="0 0 128 128">
  <path fill="#40c0e7"
    d="M120.88 0h-114C3.09 0 0 3.1 0 6.88v114.01c0 3.78 3.09 6.88 6.88 6.88h114.01c3.78 0 6.88-3.1 6.88-6.88V6.88c0-3.78-3.1-6.88-6.89-6.88" />
  <path fill="#fff"
    d="M89.53 19.21H68.45c-.64 0-1.15.52-1.15 1.15v87.67c0 .64.51 1.15 1.15 1.15h21.08c.64 0 1.15-.52 1.15-1.15V93.52c0-.63-.51-1.15-1.15-1.15H76.21V71.64h10.14c.63 0 1.15-.51 1.15-1.15V55.97c0-.64-.51-1.15-1.15-1.15H76.21V36.04h13.32c.64 0 1.15-.52 1.15-1.15V20.37c0-.63-.51-1.16-1.15-1.16m26.67 0H95.11c-.63 0-1.15.52-1.15 1.15v87.67c0 .64.52 1.15 1.15 1.15h21.09c.63 0 1.15-.52 1.15-1.15V93.52c0-.63-.52-1.15-1.15-1.15h-13.33V71.64h10.14c.63 0 1.15-.51 1.15-1.15V55.97c0-.64-.52-1.15-1.15-1.15h-10.14V36.04h13.33c.63 0 1.15-.52 1.15-1.15V20.37c0-.63-.52-1.16-1.15-1.16m-83.62 0H12.55c-.63 0-1.15.52-1.15 1.15v87.67c0 .64.52 1.15 1.15 1.15h6.62c.63 0 1.15-.52 1.15-1.15V72.61h10.14c.64 0 1.15-.51 1.15-1.15V56.94c0-.64-.51-1.15-1.15-1.15H20.31V36.04h12.27c.63 0 1.15-.52 1.15-1.15V20.37c0-.63-.52-1.16-1.15-1.16m23.47 58.02c4.56-4.71 6.98-16.6 6.98-27.96c0-14.59-3.98-30.09-11.35-30.09H40.24c-.08 0-.14.03-.21.04h-1.87c-.64 0-1.15.52-1.15 1.15v87.67c0 .64.51 1.15 1.15 1.15h6.61c.63 0 1.15-.51 1.15-1.15V79.35h1.56l7.59 29c.14.53.62.9 1.17.9h6.61c.38 0 .73-.17.96-.47c.23-.29.31-.68.21-1.04zM50.84 61.8h-5.28c-.17 0-.3-.13-.3-.3V37.03c0-.17.14-.3.3-.3h5.28c2.47 0 4.4 5.51 4.4 12.54c0 7.02-1.93 12.53-4.4 12.53" />
</svg>