<?xml version="1.0" encoding="utf-8"?>
<svg width="16" height="16" viewBox="0 0 16 16" fill="none" xmlns="http://www.w3.org/2000/svg">
	<g>
		<rect width="16" height="16" />
		<g transform="translate(0.296 0.294)">
			<path id="Path"
				d="M8.66282 10.5334C10.0418 9.9868 10.7304 8.38951 10.2011 6.96564C9.67169 5.54177 8.12469 4.83067 6.74581 5.37725C5.36688 5.9239 4.67825 7.52125 5.20756 8.94512C5.47915 9.67562 6.03822 10.2529 6.74582 10.5334C6.74582 10.5334 4.94438 15.3805 4.94438 15.3805C0.973002 13.8065 -1.01075 9.20622 0.513564 5.10544C2.03788 1.00467 6.49294 -1.04365 10.4643 0.530283C14.4357 2.10422 16.4194 6.70448 14.8951 10.8052C14.113 12.9096 12.5026 14.5725 10.4643 15.3804C10.4643 15.3804 8.66282 10.5334 8.66282 10.5334Z" />
			<path
				d="M10.2011 6.96564C10.7304 8.38951 10.0418 9.9868 8.66282 10.5334L10.2901 14.9116L10.4643 15.3804C10.6199 15.3187 10.773 15.2521 10.9235 15.1806C12.7437 14.316 14.1727 12.7489 14.8951 10.8052C16.4194 6.70448 14.4357 2.10422 10.4643 0.530283C6.49294 -1.04365 2.03788 1.00467 0.513564 5.10544C-0.950799 9.04494 0.822391 13.4454 4.48512 15.181C4.63507 15.252 4.78819 15.3186 4.94438 15.3805L5.11861 14.9117L6.74582 10.5334C6.03822 10.2529 5.47915 9.67562 5.20756 8.94512C4.67825 7.52125 5.36688 5.9239 6.74581 5.37725C8.12469 4.83067 9.67169 5.54177 10.2011 6.96564ZM6.11852 10.7861Q5.15347 10.2344 4.7389 9.11934Q3.60998 6.08252 6.56156 4.91244Q7.79452 4.4237 9.00084 4.97823Q10.2007 5.52978 10.6697 6.7914Q11.7081 9.58435 9.29469 10.7984L10.7495 14.7125Q13.3678 13.4795 14.4264 10.631Q15.4997 7.74347 14.2814 4.91819Q13.0658 2.09915 10.2801 0.995107Q7.50036 -0.106559 4.78016 1.14413Q2.05345 2.39781 0.982234 5.27965Q-0.0911116 8.16722 1.12722 10.9925Q2.23791 13.5682 4.65932 14.7123L6.11852 10.7861Z"
				fill="#3DA639" fill-rule="evenodd" />
		</g>
		<path id="Shape"
			d="M10.7418 15.9515C10.6278 15.9516 10.5255 15.879 10.4848 15.7691C10.4848 15.7691 8.68328 10.922 8.68328 10.922C8.62886 10.7754 8.69977 10.611 8.84172 10.5546C9.43991 10.3175 9.91297 9.85399 10.1736 9.24948C10.4342 8.64503 10.4512 7.97193 10.2215 7.35425C9.74747 6.07903 8.3571 5.43987 7.12216 5.92941C5.88716 6.41903 5.26816 7.8547 5.74228 9.12986C5.98628 9.78488 6.48763 10.3026 7.12209 10.5546C7.26405 10.611 7.33495 10.7754 7.28053 10.922C7.28053 10.922 5.47903 15.7691 5.47903 15.7691C5.42455 15.9157 5.26527 15.9889 5.12328 15.9326C3.13391 15.1443 1.56091 13.603 0.694095 11.5929C-0.172655 9.58283 -0.22953 7.34451 0.534095 5.29032C1.29753 3.23612 2.79016 1.61186 4.73685 0.716768C6.68353 -0.178329 8.85116 -0.236974 10.8406 0.551478C12.83 1.33993 14.403 2.88115 15.2697 4.89122C16.1365 6.90128 16.1933 9.13961 15.4297 11.1938C14.6208 13.3701 12.9481 15.0973 10.8405 15.9326C10.8091 15.9451 10.7756 15.9515 10.7419 15.9515C10.7419 15.9515 10.7418 15.9515 10.7418 15.9515ZM7.97928 0.569031C6.95222 0.569031 5.92741 0.791999 4.96091 1.23632C3.14872 2.06968 1.7591 3.58174 1.04828 5.49419C0.33741 7.40658 0.390347 9.49032 1.19728 11.3616C1.96678 13.1461 3.33403 14.5336 5.06528 15.2951C5.06528 15.2951 6.67228 10.9712 6.67228 10.9712C6.00926 10.6313 5.4939 10.047 5.2281 9.33381C4.64516 7.76581 5.40622 6.00051 6.92472 5.39858C8.44328 4.79664 10.1528 5.58258 10.7357 7.15045C11.0182 7.91 10.9972 8.73768 10.6767 9.4809C10.3939 10.1369 9.90766 10.6579 9.29172 10.9716C9.29172 10.9716 10.8985 15.2949 10.8985 15.2949C12.74 14.4826 14.1954 12.9275 14.9156 10.9901C15.6264 9.0778 15.5735 6.994 14.7665 5.12271C13.9597 3.25142 12.4953 1.81658 10.6432 1.08258C9.77878 0.739999 8.87816 0.56916 7.97922 0.56916C7.97922 0.56916 7.97928 0.569031 7.97928 0.569031Z"
			fill="#3DA639" transform="translate(0.018 0.008)" />
	</g>
</svg>