<?xml version="1.0" encoding="utf-8"?>
<svg width="36" height="16" viewBox="0 0 36 16" fill="none" xmlns="http://www.w3.org/2000/svg">
  <defs>
    <clipPath id="clip_path_1">
      <rect width="36" height="16" rx="2" />
    </clipPath>
  </defs>
  <g clip-path="url(#clip_path_1)">
    <rect width="36" height="16" fill="#D3302F" fill-rule="evenodd" />
    <path
      d="M0.758523 11.625L0.758523 2.89773L4.2017 2.89773Q5.1946 2.89773 5.89347 3.27486Q6.59233 3.65199 6.96094 4.31889Q7.32955 4.9858 7.32955 5.85511Q7.32955 6.72443 6.95455 7.38707Q6.57955 8.04972 5.87003 8.42258Q5.16051 8.79545 4.15483 8.79545L2.60369 8.79545L2.60369 11.625L0.758523 11.625ZM2.60369 7.31676L3.85653 7.31676Q4.64915 7.31676 5.03906 6.9098Q5.42898 6.50284 5.42898 5.85511Q5.42898 5.20312 5.03906 4.80469Q4.64915 4.40625 3.84801 4.40625L2.60369 4.40625L2.60369 7.31676ZM9.02557 11.625L7.0483 11.625L10.0611 2.89773L12.4389 2.89773L15.4474 11.625L13.4702 11.625L12.8224 9.63494L9.6733 9.63494L9.02557 11.625ZM10.142 8.1946L12.358 8.1946L11.2841 4.89205L11.2159 4.89205L10.142 8.1946ZM18.3409 2.89773L18.3409 11.625L16.4957 11.625L16.4957 2.89773L18.3409 2.89773ZM22.956 11.625L19.8622 11.625L19.8622 2.89773L22.9815 2.89773Q24.2983 2.89773 25.2507 3.41974Q26.2031 3.94176 26.7145 4.91761Q27.2259 5.89347 27.2259 7.25284Q27.2259 8.61648 26.7124 9.59659Q26.1989 10.5767 25.2422 11.1009Q24.2855 11.625 22.956 11.625ZM21.7074 10.044L22.8793 10.044Q24.1108 10.044 24.7479 9.37926Q25.3849 8.71449 25.3849 7.25284Q25.3849 5.79972 24.7479 5.1392Q24.1108 4.47869 22.8835 4.47869L21.7074 4.47869L21.7074 10.044Z"
      transform="translate(4 1)" fill="#FFFFFF" />
  </g>
</svg>